<?xml version="1.0" standalone="no"?>
<!DOCTYPE svg PUBLIC "-//W3C//DTD SVG 20010904//EN"
 "http://www.w3.org/TR/2001/REC-SVG-20010904/DTD/svg10.dtd">
<svg version="1.0" xmlns="http://www.w3.org/2000/svg"
 width="570.000000pt" height="400.000000pt" viewBox="0 0 570.000000 400.000000"
 preserveAspectRatio="xMidYMid meet">

<g transform="translate(0.000000,400.000000) scale(0.100000,-0.100000)"
fill="#000000" stroke="none">
<path d="M3495 3718 c-28 -16 -40 -33 -82 -113 -51 -101 -92 -154 -139 -181
-59 -35 -97 -31 -203 21 -127 62 -157 60 -236 -16 l-40 -38 -48 46 -48 45 28
30 c24 26 33 29 67 25 34 -5 42 -2 67 26 58 63 35 70 -77 23 -54 -23 -79 -26
-225 -32 -162 -5 -177 -8 -344 -59 -36 -11 -40 -15 -38 -42 2 -20 -4 -36 -17
-48 -11 -10 -20 -23 -20 -28 0 -6 -11 -25 -25 -43 -14 -18 -25 -35 -25 -38 0
-2 -4 -16 -9 -29 -10 -24 -10 -25 -68 -12 -32 7 -75 16 -95 19 -30 5 -38 12
-38 27 0 19 -4 20 -52 14 -62 -9 -125 -25 -190 -51 l-46 -18 -69 32 c-65 29
-198 61 -210 49 -3 -3 1 -25 8 -48 14 -42 15 -43 78 -55 35 -7 65 -15 68 -17
2 -3 -20 -19 -49 -36 -29 -17 -61 -37 -71 -44 -14 -10 -19 -9 -26 2 -8 12 -21
12 -82 2 -72 -12 -189 -56 -189 -71 0 -5 18 -11 39 -15 53 -9 66 -21 90 -83
34 -85 32 -88 -49 -95 -130 -11 -249 -90 -303 -201 -30 -60 -31 -66 -18 -66 5
0 20 24 34 53 32 71 80 123 141 154 211 107 466 -123 455 -412 -1 -33 3 -73
10 -90 18 -45 6 -85 -54 -176 -30 -46 -55 -86 -55 -90 0 -11 71 10 106 32 30
18 31 20 28 90 -2 55 2 78 16 102 29 49 50 143 50 222 0 59 4 77 26 110 69
105 192 199 311 240 65 22 69 26 97 79 19 38 34 56 47 56 17 0 16 -5 -11 -49
-17 -26 -30 -50 -30 -52 0 -2 25 -2 55 -1 55 4 55 4 86 58 26 46 35 54 60 54
16 0 29 -2 29 -5 0 -2 -14 -25 -32 -50 -17 -24 -30 -46 -27 -48 2 -2 18 -7 34
-10 27 -5 33 -1 60 44 30 50 48 59 78 36 16 -11 15 -15 -13 -54 l-31 -42 73
-34 c144 -67 248 -170 313 -308 34 -74 33 -85 -12 -93 -83 -13 -85 -12 -127
69 -46 90 -125 167 -218 212 -64 30 -155 59 -163 51 -2 -2 74 -59 170 -126 96
-68 175 -129 175 -136 0 -24 -30 -100 -43 -108 -9 -6 -8 -8 3 -8 15 0 83 -59
97 -85 7 -11 17 -12 53 -3 25 5 88 10 140 10 98 0 191 -22 271 -63 l36 -18
134 73 c74 41 167 92 208 115 41 22 77 41 82 41 4 0 15 15 24 33 22 45 46 72
86 96 44 27 72 26 139 -5 42 -19 63 -24 93 -19 47 8 54 23 32 66 -23 44 -16
148 14 207 12 23 19 42 17 42 -3 0 -12 -12 -20 -27 l-14 -28 -11 28 c-6 16
-11 31 -11 35 0 4 77 57 170 117 94 61 170 113 170 116 0 3 -26 31 -57 61 -73
69 -182 124 -292 145 -138 27 -289 -3 -409 -82 -52 -35 -57 -36 -114 -30 l-60
7 43 45 c82 83 214 153 321 168 52 8 53 12 26 84 -6 17 -5 27 4 33 25 16 35 7
53 -47 17 -48 22 -55 46 -55 l26 0 -16 54 c-10 34 -22 57 -33 59 -9 3 -28 29
-42 59 -43 91 -114 142 -161 116z m-961 -229 c69 -25 134 -87 170 -160 l27
-56 142 44 c78 23 147 43 153 43 7 0 51 -38 99 -84 79 -75 93 -85 142 -95 99
-20 264 -115 247 -143 -4 -6 -3 -8 3 -5 6 4 21 -6 34 -21 22 -25 22 -25 2 -8
-22 18 -23 18 -23 1 0 -12 -6 -16 -20 -12 -11 3 -22 1 -25 -3 -3 -5 3 -11 12
-13 14 -4 13 -5 -4 -6 -13 0 -23 5 -23 12 0 7 -5 5 -11 -5 -9 -16 -12 -15 -45
7 -48 33 -126 57 -171 53 -32 -3 -41 -8 -55 -38 -10 -20 -20 -68 -24 -108 -5
-48 -11 -72 -20 -72 -7 0 -15 -10 -17 -22 -2 -13 -5 17 -6 66 -2 142 -10 95
-12 -68 -1 -102 -4 -148 -12 -150 -112 -28 -202 -81 -237 -139 -11 -18 -22
-32 -25 -32 -3 0 -21 35 -39 77 -66 151 -164 259 -312 341 -37 20 -84 42 -105
49 -32 9 -39 16 -39 37 -1 33 -31 101 -56 123 -34 30 -91 48 -150 48 l-56 0 7
38 c18 98 101 221 182 269 99 57 175 67 267 32z m1276 -328 c30 -58 -58 -85
-94 -29 -15 24 10 48 50 48 23 0 37 -6 44 -19z m-1756 -77 c24 -9 21 -61 -5
-74 -27 -15 -59 -9 -73 12 -8 13 -5 23 14 43 24 26 37 29 64 19z m-329 -75 c4
-12 4 -41 0 -66 -5 -37 -9 -42 -21 -32 -24 19 -39 86 -24 104 18 21 37 19 45
-6z m-137 -56 c12 -23 21 -123 12 -123 -16 0 -70 72 -70 93 0 42 41 63 58 30z
m1702 -25 c0 -11 -12 -43 -27 -70 l-27 -50 -8 28 c-10 36 0 90 18 109 19 18
44 8 44 -17z m191 15 c13 -16 12 -17 -3 -4 -10 7 -18 15 -18 17 0 8 8 3 21
-13z m-23 -61 c4 -24 -27 -42 -95 -57 -42 -9 -42 4 1 50 27 28 41 36 63 33 20
-2 29 -9 31 -26z m-1964 -126 c25 -31 28 -39 16 -46 -24 -16 -34 -12 -63 25
-23 30 -26 39 -16 51 16 20 27 15 63 -30z m2010 -9 c21 -16 18 -55 -5 -70 -12
-7 -29 -4 -63 13 l-47 22 32 24 c37 27 57 30 83 11z m-65 -202 c37 -19 45 -42
26 -71 -27 -41 -49 -29 -93 49 l-21 37 30 0 c16 0 43 -7 58 -15z m-421 -47
c17 -17 15 -38 -5 -60 -20 -22 -69 -24 -77 -2 -9 25 -7 33 14 54 23 23 50 26
68 8z"/>
<path d="M4146 3591 c-59 -15 -76 -25 -113 -64 l-44 -47 -72 25 c-71 23 -204
45 -162 26 11 -5 28 -30 38 -59 17 -50 18 -51 73 -62 102 -21 210 -84 301
-175 l81 -83 163 109 c90 59 164 107 165 106 14 -16 73 -128 95 -181 29 -68
38 -105 19 -76 -8 13 -10 12 -10 -4 0 -11 -5 -16 -14 -13 -8 3 -16 -2 -19 -14
-5 -19 -27 -27 -27 -9 0 6 5 10 10 10 6 0 10 5 10 11 0 8 -4 9 -13 0 -8 -6
-16 -8 -20 -5 -3 3 -4 -5 -1 -18 3 -18 1 -17 -10 7 -8 17 -28 44 -46 60 -51
49 -90 42 -245 -45 -71 -40 -157 -87 -190 -105 l-60 -32 49 -24 c57 -28 112
-99 121 -157 15 -94 20 -98 60 -58 22 22 23 29 18 103 -4 53 -2 87 6 102 16
30 69 51 126 51 41 0 50 -4 82 -40 42 -46 51 -43 81 28 41 95 84 114 168 73
101 -49 154 -125 154 -223 0 -29 3 -35 18 -32 12 4 25 33 45 107 15 56 28 116
27 133 0 39 -35 73 -82 81 -35 5 -36 7 -42 60 -4 30 -11 64 -17 75 -13 23 -67
48 -106 48 -50 0 -91 36 -157 139 -76 118 -104 145 -174 171 -67 25 -190 26
-286 1z m377 -523 c24 -37 -46 -62 -120 -42 -33 9 -28 19 20 43 48 24 85 24
100 -1z m157 -2 c0 -2 -7 -7 -16 -10 -8 -3 -12 -2 -9 4 6 10 25 14 25 6z"/>
<path d="M771 3360 c-74 -11 -90 -23 -116 -94 -22 -60 -79 -126 -109 -126 -13
0 -33 12 -47 26 -13 15 -38 33 -56 40 -42 18 -114 18 -139 0 -19 -14 -18 -15
6 -85 19 -55 22 -76 14 -98 -15 -43 -39 -39 -97 16 -32 30 -63 51 -76 51 -31
0 -79 -53 -87 -96 -14 -73 21 -178 62 -188 13 -4 35 -22 50 -41 31 -41 54 -44
109 -11 41 23 42 26 31 62 -5 18 23 40 212 167 l219 146 85 -23 85 -23 55 41
c30 23 63 46 72 51 16 9 16 13 2 54 -26 73 3 87 35 17 16 -36 23 -43 40 -39
19 5 20 10 14 52 -4 25 -8 52 -8 59 -1 34 -225 60 -356 42z"/>
<path d="M1185 3283 c8 -27 15 -49 15 -50 0 -7 46 -2 58 6 11 6 11 17 2 50
-10 39 -12 41 -50 41 l-39 0 14 -47z"/>
<path d="M5164 3125 c-9 -23 10 -147 37 -240 31 -107 14 -161 -69 -215 l-23
-15 89 -123 89 -124 -126 -212 -126 -213 -6 42 c-19 124 -121 197 -274 197
-67 1 -92 -4 -138 -25 l-56 -26 22 -39 c20 -37 23 -39 41 -26 41 28 92 8 84
-33 -5 -27 -52 -47 -79 -32 -18 9 -21 9 -17 -2 3 -8 13 -61 23 -117 10 -57 23
-106 30 -108 15 -6 234 70 309 108 168 85 227 137 257 227 47 142 80 184 229
291 172 122 202 174 182 308 -14 90 -47 161 -85 182 -25 14 -30 13 -67 -7 -51
-30 -84 -29 -109 2 -20 26 -25 44 -36 128 -8 59 -32 77 -114 84 -52 5 -62 3
-67 -12z"/>
<path d="M4656 2941 c-33 -64 -69 -106 -106 -121 -38 -16 -52 -5 -69 49 -13
44 -34 56 -81 46 -42 -9 -49 -28 -43 -116 5 -63 3 -83 -11 -104 -18 -27 -86
-64 -118 -65 -25 0 -48 28 -49 58 0 24 -1 25 -9 7 -4 -11 -18 -62 -30 -112
l-22 -93 -63 0 c-72 0 -164 -26 -228 -63 -47 -28 -147 -131 -147 -150 1 -11
79 -78 98 -85 5 -1 19 21 32 49 35 74 125 154 197 175 71 21 165 14 226 -15
58 -28 132 -104 160 -163 20 -43 47 -64 47 -37 0 29 -68 135 -112 174 l-49 44
101 169 101 169 106 7 c58 3 144 6 191 6 l85 0 -6 56 c-3 30 -13 67 -22 80
-24 37 -95 84 -126 84 -24 0 -33 -8 -53 -49z"/>
<path d="M3909 2903 c-13 -16 -12 -17 4 -4 16 13 21 21 13 21 -2 0 -10 -8 -17
-17z"/>
<path d="M2333 2331 c-135 -71 -251 -179 -302 -280 -17 -33 -25 -38 -80 -49
-56 -12 -64 -17 -87 -55 -15 -23 -38 -54 -52 -69 -28 -30 -20 -37 13 -12 11 8
37 19 58 25 21 5 47 19 58 30 24 24 61 25 82 1 21 -23 21 -36 2 -52 -14 -11
-14 -15 -1 -29 27 -30 48 -93 48 -148 1 -50 2 -53 27 -53 14 0 42 -3 61 -6
l36 -6 -1 59 c0 86 12 129 48 170 l32 36 -44 37 -44 38 26 45 c15 24 54 72 88
105 l61 61 -45 54 -46 53 27 16 c27 17 27 17 78 -33 l51 -51 31 16 31 16 -50
47 c-50 47 -50 47 -27 60 14 7 17 12 8 12 -8 0 -48 -17 -87 -38z"/>
<path d="M1324 2271 c-36 -22 -65 -78 -114 -223 -18 -54 -42 -107 -53 -119
-29 -31 -77 -21 -173 34 -92 54 -166 77 -192 61 -10 -7 -17 -24 -17 -44 0 -30
5 -36 60 -66 33 -18 148 -62 255 -97 227 -75 496 -195 768 -341 105 -57 192
-102 192 -101 0 1 -12 28 -26 60 -24 53 -26 64 -18 129 20 175 7 231 -60 263
-43 20 -70 13 -130 -32 -25 -20 -54 -35 -63 -33 -28 5 -35 58 -14 102 l19 38
-36 -6 c-124 -21 -138 -20 -160 9 -18 22 -22 41 -22 96 l0 68 -51 -34 c-83
-57 -188 -74 -209 -35 -14 26 4 68 69 161 57 81 68 129 29 129 -13 0 -37 -9
-54 -19z"/>
<path d="M4435 2131 c-26 -12 -49 -33 -65 -60 -14 -23 -47 -77 -75 -120 -27
-43 -62 -99 -77 -125 -50 -84 -74 -74 -113 47 -27 84 -66 147 -90 147 -35 0
-76 -56 -114 -158 -21 -57 -47 -112 -56 -123 -24 -26 -57 -24 -85 6 -19 20
-22 31 -16 63 8 50 -15 81 -86 116 -89 45 -199 30 -226 -29 -6 -12 -14 -43
-17 -69 -13 -81 -42 -91 -130 -43 -32 18 -41 30 -50 66 l-11 44 -43 -49 c-54
-60 -102 -135 -124 -191 l-17 -43 73 0 c127 0 577 29 717 45 358 42 770 122
770 150 0 6 -11 67 -24 136 -25 128 -48 199 -65 199 -5 0 -15 2 -23 5 -7 2
-31 -4 -53 -14z"/>
<path d="M2730 2137 c0 -2 33 -16 73 -32 39 -15 87 -39 106 -53 36 -27 51 -20
51 24 0 23 -20 34 -95 53 -37 10 -135 15 -135 8z"/>
<path d="M2377 1961 c-26 -35 -47 -66 -47 -70 0 -4 16 -13 36 -20 34 -12 38
-12 61 11 23 24 24 26 11 84 l-14 59 -47 -64z"/>
</g>
</svg>
